Coordinates
version=1
nRows=27
nColumns=12
inDegrees=yes

Units are S.I. units (second, meters, Newtons, ...)
Angles are in degrees

endheader
time	SC_y	SC_z	SC_x	AC_y	AC_z	AC_x	GH_y	GH_z	GH_yy	EL_x	PS_y
       0.0              -55.95          20.16          62.64          64.02         -6.389          12.33         -159.6         -11.33         -112.0          104.9          78.62
   0.03313              -55.94          20.16          62.64          64.01         -6.391          12.33         -159.6         -11.33         -111.9          104.9          78.62
   0.06626              -55.94          20.17          62.63          64.01         -6.393          12.33         -159.5         -11.33         -111.9          104.9          78.62
   0.09939              -55.93          20.17          62.63          64.01         -6.395          12.33         -159.5         -11.32         -111.9          104.9          78.62
    0.1325              -55.93          20.17          62.62           64.0         -6.398          12.33         -159.5         -11.32         -111.9          104.8          78.63
    0.1657              -55.92          20.17          62.61           64.0           -6.4          12.33         -159.4         -11.32         -111.9          104.8          78.63
    0.1988              -55.92          20.17          62.61          63.99         -6.403          12.33         -159.4         -11.32         -111.9          104.8          78.63
    0.2319              -55.91          20.17           62.6          63.99         -6.406          12.32         -159.3         -11.32         -111.8          104.8          78.63
     0.265               -55.9          20.17          62.59          63.98         -6.409          12.32         -159.3         -11.31         -111.8          104.8          78.63
    0.2982               -55.9          20.18          62.58          63.98         -6.412          12.32         -159.3         -11.31         -111.8          104.8          78.63
    0.3313              -55.89          20.18          62.57          63.97         -6.416          12.32         -159.2         -11.31         -111.8          104.8          78.64
    0.3644              -55.88          20.18          62.56          63.97          -6.42          12.32         -159.2         -11.31         -111.7          104.7          78.64
    0.3976              -55.87          20.18          62.55          63.96         -6.424          12.31         -159.1          -11.3         -111.7          104.7          78.64
    0.4307              -55.86          20.18          62.54          63.95         -6.428          12.31         -159.0          -11.3         -111.7          104.7          78.64
    0.4638              -55.85          20.19          62.52          63.94         -6.433          12.31         -159.0          -11.3         -111.6          104.7          78.65
     0.497              -55.84          20.19          62.51          63.94         -6.438          12.31         -158.9          -11.3         -111.6          104.6          78.65
    0.5301              -55.83          20.19          62.49          63.93         -6.444           12.3         -158.8         -11.29         -111.5          104.6          78.65
    0.5632              -55.81           20.2          62.48          63.92          -6.45           12.3         -158.7         -11.29         -111.5          104.6          78.66
    0.5964               -55.8           20.2          62.46           63.9         -6.457          12.29         -158.6         -11.28         -111.5          104.5          78.66
    0.6295              -55.78           20.2          62.44          63.89         -6.465          12.29         -158.5         -11.28         -111.4          104.5          78.67
    0.6626              -55.76          20.21          62.41          63.88         -6.473          12.29         -158.4         -11.27         -111.3          104.4          78.67
    0.6957              -55.74          20.21          62.39          63.86         -6.482          12.28         -158.3         -11.27         -111.3          104.4          78.68
    0.7289              -55.72          20.22          62.36          63.85         -6.492          12.27         -158.1         -11.26         -111.2          104.3          78.68
     0.762               -55.7          20.22          62.33          63.83         -6.503          12.27         -158.0         -11.25         -111.1          104.3          78.69
    0.7951              -55.67          20.23           62.3          63.81         -6.515          12.26         -157.8         -11.24         -111.0          104.2           78.7
    0.8283              -55.64          20.24          62.26          63.79         -6.529          12.25         -157.6         -11.23         -110.9          104.2          78.71
    0.8614              -55.61          20.24          62.22          63.76         -6.544          12.24         -157.4         -11.22         -110.8          104.1          78.71
